HIERARCHY
ROOT Hips
{
	OFFSET -0.497949 75.553574 -4.112920
	CHANNELS 6 Xposition Yposition Zposition Xrotation Yrotation Zrotation
	JOINT Chest
	{
		OFFSET 0.024079 13.575363 1.364963
		CHANNELS 3 Xrotation Yrotation Zrotation
		JOINT Chest2
		{
			OFFSET -0.302759 18.739723 10.382566
			CHANNELS 3 Xrotation Yrotation Zrotation
			JOINT Chest3
			{
				OFFSET 0.631096 13.919640 5.353990
				CHANNELS 3 Xrotation Yrotation Zrotation
				JOINT Neck
				{
					OFFSET 0.326054 16.157364 6.119598
					CHANNELS 3 Xrotation Yrotation Zrotation
					JOINT Head
					{
						OFFSET -0.615430 9.446533 4.495775
						CHANNELS 3 Xrotation Yrotation Zrotation
						End Site
						{
							OFFSET -0.614993 9.477722 4.429695
						}
					}
				}
				JOINT LeftCollar
				{
					OFFSET 4.827046 11.518127 6.770281
					CHANNELS 3 Xrotation Yrotation Zrotation
					JOINT LeftUpArm
					{
						OFFSET 14.114599 -2.827652 -10.063898
						CHANNELS 3 Xrotation Yrotation Zrotation
						JOINT LeftLowArm
						{
							OFFSET 4.454147 -31.476913 -11.361926
							CHANNELS 3 Xrotation Yrotation Zrotation
							JOINT LeftHand
							{
								OFFSET 1.535147 -29.976295 0.112678
								CHANNELS 3 Xrotation Yrotation Zrotation
								End Site
								{
									OFFSET 0.335520 -6.551491 0.024622
								}
							}
						}
					}
				}
				JOINT RightCollar
				{
					OFFSET -3.501403 11.238556 7.952587
					CHANNELS 3 Xrotation Yrotation Zrotation
					JOINT RightUpArm
					{
						OFFSET -15.413916 -4.914307 -6.837917
						CHANNELS 3 Xrotation Yrotation Zrotation
						JOINT RightLowArm
						{
							OFFSET -6.271137 -32.467987 -6.799828
							CHANNELS 3 Xrotation Yrotation Zrotation
							JOINT RightHand
							{
								OFFSET -0.267187 -29.749298 3.982807
								CHANNELS 3 Xrotation Yrotation Zrotation
								End Site
								{
									OFFSET -0.058397 -6.502007 0.870484
								}
							}
						}
					}
				}
			}
		}
	}
	JOINT LeftUpLeg
	{
		OFFSET 10.008396 -0.067886 0.496537
		CHANNELS 3 Xrotation Yrotation Zrotation
		JOINT LeftLowLeg
		{
			OFFSET 2.265817 -20.964905 42.418468
			CHANNELS 3 Xrotation Yrotation Zrotation
			JOINT LeftFoot
			{
				OFFSET 1.338517 -19.853653 -40.057568
				CHANNELS 3 Xrotation Yrotation Zrotation
				JOINT LeftToe
				{
					OFFSET 2.117166 -23.192799 4.143821
					CHANNELS 3 Xrotation Yrotation Zrotation
					End Site
					{
						OFFSET 1.980424 -15.253531 17.971272
					}
				}
			}
		}
	}
	JOINT RightUpLeg
	{
		OFFSET -10.008400 0.067688 -0.496557
		CHANNELS 3 Xrotation Yrotation Zrotation
		JOINT RightLowLeg
		{
			OFFSET -6.703750 -44.715729 14.127092
			CHANNELS 3 Xrotation Yrotation Zrotation
			JOINT RightFoot
			{
				OFFSET 1.598610 13.383114 -42.648766
				CHANNELS 3 Xrotation Yrotation Zrotation
				JOINT RightToe
				{
					OFFSET 5.105077 -21.934595 -7.236633
					CHANNELS 3 Xrotation Yrotation Zrotation
					End Site
					{
						OFFSET 1.415853 -22.115114 8.274849
					}
				}
			}
		}
	}
}
MOTION
Frames: 10
Frame Time: 0.033333
-4.079662 47.129063 -21.324638 20.313391 0.289353 3.290453 9.552753 -0.601361 1.134460 -8.451085 -1.044101 0.365729 -0.291516 -5.880128 -6.985967 -36.827414 2.340089 2.391289 0.000001 -0.000000 0.000000 4.690258 -14.311424 23.523942 7.166637 -36.467807 65.547556 -36.829954 -55.421374 82.508057 -0.000001 -0.000004 0.000003 -2.412842 18.234884 -26.847585 -16.392312 32.564399 -44.722518 -86.829920 47.631687 -35.360798 0.000000 -0.000000 0.000000 -5.478137 0.174726 0.559471 6.802246 -1.451933 16.540188 -10.743027 -5.764273 -22.493705 -0.000005 -0.000001 0.000000 -49.658194 7.651425 -6.712111 8.976942 1.171028 1.552547 5.359348 -0.117052 -8.868217 0.000004 -0.000001 0.000001 
-4.149180 46.901501 -21.499870 20.372371 0.538349 3.301399 9.735257 -0.652790 1.354548 -8.299091 -1.066051 0.357195 -0.448285 -6.189576 -7.306801 -37.239472 2.371034 2.448038 -0.000001 -0.000000 0.000000 4.554622 -14.494179 23.432753 6.596370 -36.098226 65.122965 -39.561712 -55.793138 79.929155 -0.000000 -0.000001 -0.000001 -2.476277 18.595123 -27.034580 -16.854301 32.321647 -44.304582 -88.374520 46.839084 -33.572787 -0.000002 -0.000002 -0.000002 -5.956357 0.140083 0.465198 7.155336 -1.415307 16.853068 -10.431335 -5.978205 -22.572124 -0.000003 -0.000000 0.000000 -49.865582 7.684570 -6.870498 9.103344 0.827680 1.910816 5.669326 -0.107617 -9.468281 -0.000001 -0.000003 0.000001 
-4.212599 46.690529 -21.670601 20.156706 0.195638 3.415263 10.213939 -0.617946 1.127011 -8.284663 -0.905116 0.261535 -0.497727 -6.154214 -7.196597 -37.105925 2.319923 2.510440 0.000003 0.000000 0.000000 4.503039 -14.161998 23.385499 6.550851 -36.634065 65.145388 -39.309624 -55.614450 79.843962 -0.000001 0.000001 0.000001 -2.610191 17.941054 -27.162896 -17.505353 32.934663 -43.526026 -88.550001 46.468987 -32.985558 -0.000001 -0.000005 0.000002 -5.744462 0.368432 0.836793 7.061384 -1.460580 15.836591 -10.003311 -6.036526 -22.375549 -0.000005 -0.000001 -0.000001 -49.898394 7.573034 -6.553410 9.317016 1.357716 1.382519 6.018250 -0.142858 -9.277893 -0.000001 -0.000002 0.000002 
-4.280419 46.500900 -21.836353 20.761250 0.218080 3.292452 10.017749 -0.589616 1.076226 -8.370611 -0.988146 0.352458 -0.299465 -6.055079 -7.195364 -37.806729 2.234819 2.644620 0.000004 -0.000000 0.000000 4.641736 -14.567871 23.628925 6.299993 -36.561815 64.528089 -39.314221 -55.423242 79.580351 0.000000 -0.000001 -0.000000 -2.565099 18.133862 -27.389188 -17.583200 33.119413 -43.460794 -88.065433 46.422163 -33.276378 -0.000000 -0.000000 0.000001 -6.550165 0.502081 1.267837 7.794750 -1.503566 15.752332 -10.246396 -6.021946 -22.530491 -0.000001 0.000001 -0.000000 -50.963115 7.686621 -6.248625 9.633505 1.115506 1.789049 6.321650 -0.247451 -9.627531 0.000004 -0.000003 0.000001 
-4.344421 46.312401 -22.009163 20.296546 0.322802 3.334442 10.832247 -0.626825 1.132976 -8.537800 -0.985200 0.383814 -0.225609 -6.179626 -7.360690 -38.130911 2.280490 2.645066 0.000003 -0.000000 0.000000 4.628721 -14.704286 23.534088 6.211366 -36.475454 64.237465 -40.111683 -55.425278 78.720635 -0.000001 -0.000001 0.000001 -2.616001 18.025450 -27.137103 -17.698014 33.599852 -43.584530 -87.641169 45.810523 -33.147902 -0.000002 -0.000000 -0.000000 -6.394518 0.430950 1.206958 7.083620 -1.494005 15.867436 -10.548567 -6.008868 -22.582410 -0.000001 0.000000 -0.000000 -50.333740 7.698410 -6.485535 9.342510 0.716574 2.168755 6.303722 -0.251967 -9.926535 0.000002 -0.000000 0.000002 
-4.405838 46.133690 -22.184132 20.272194 0.200121 3.384993 10.949228 -0.582862 0.951690 -8.580422 -0.998844 0.421654 -0.105982 -6.037573 -7.276684 -38.216408 2.342068 2.698236 0.000001 0.000000 0.000000 4.600361 -14.703869 23.531699 5.809082 -36.371188 63.580428 -41.470863 -55.393217 77.212365 -0.000000 -0.000002 0.000001 -2.589427 18.045011 -27.018622 -17.622848 33.568519 -43.651503 -87.790853 45.556990 -32.874223 0.000000 -0.000005 0.000001 -6.005398 0.558171 1.457554 7.598287 -1.605695 14.916126 -9.367660 -6.027973 -21.846459 -0.000001 0.000000 0.000000 -50.229361 7.692723 -6.460215 9.314129 0.619316 2.385887 6.473526 -0.354883 -9.963678 0.000000 -0.000003 0.000001 
-4.463519 45.973042 -22.353851 20.391631 0.384911 3.455292 10.993043 -0.587453 1.026319 -8.496329 -0.965111 0.415390 -0.133992 -6.153103 -7.358923 -38.430384 2.341297 2.698790 -0.000001 0.000000 0.000001 4.486803 -14.679279 23.389947 5.304096 -36.497314 62.977302 -43.089324 -55.539495 75.602626 0.000001 0.000001 0.000001 -2.526606 18.366450 -27.075905 -17.347530 32.894703 -43.585790 -88.084626 45.608062 -32.733405 -0.000001 -0.000006 -0.000001 -6.265484 0.442292 1.321304 7.113897 -1.545773 15.483240 -9.783067 -6.179816 -22.561862 -0.000003 -0.000000 -0.000000 -50.377399 7.811457 -6.661525 9.410198 0.148672 2.973690 6.776354 -0.436797 -10.781007 0.000003 -0.000001 0.000001 
-4.519218 45.837448 -22.520298 20.471349 0.197939 3.511227 11.017499 -0.534365 0.819763 -8.447582 -0.935787 0.415439 -0.072205 -6.135087 -7.219622 -38.363202 2.362304 2.729348 0.000001 -0.000000 0.000000 4.556105 -14.701367 23.371854 5.246019 -36.595453 62.679758 -42.111890 -55.308106 76.280721 -0.000000 -0.000002 0.000000 -2.374469 18.415773 -26.943392 -17.148768 32.932881 -43.642720 -87.596534 45.921462 -33.140843 -0.000003 -0.000004 0.000001 -6.494607 0.531147 1.443809 6.535602 -1.496442 16.037974 -10.773634 -6.151109 -23.371463 0.000000 0.000000 -0.000000 -50.683979 7.743971 -6.298778 9.212681 0.608699 2.417528 6.885306 -0.487997 -10.354493 0.000003 0.000001 0.000001 
-4.569265 45.706444 -22.686951 21.294366 0.627541 3.450976 9.986152 -0.587989 1.158767 -8.256304 -0.978663 0.433140 0.165860 -5.709564 -7.246432 -39.317431 2.175881 2.808404 0.000001 -0.000000 0.000000 5.098595 -15.959714 23.723484 4.743633 -35.890363 61.447367 -41.418465 -55.413929 77.139494 -0.000002 -0.000008 0.000002 -2.558837 17.760862 -26.996973 -17.016395 32.518906 -43.508363 -88.397469 45.804925 -32.359749 -0.000003 -0.000007 0.000002 -7.378423 0.308942 1.107285 6.809531 -1.479162 16.816218 -10.564976 -6.317999 -23.813509 -0.000003 -0.000001 0.000000 -51.192456 7.991520 -6.726579 9.060021 0.159540 2.899591 7.043805 -0.570479 -10.808494 0.000002 0.000000 0.000003 
-4.617758 45.589745 -22.845444 20.783267 0.494583 3.473021 10.707732 -0.570691 1.055326 -8.463767 -1.017982 0.519387 0.122094 -5.915468 -7.320867 -38.261842 2.437924 2.716543 0.000003 0.000000 0.000001 4.904531 -15.265345 23.457130 5.100307 -36.239420 61.691758 -40.202254 -55.520709 78.259215 -0.000001 -0.000004 0.000004 -2.201873 18.018473 -27.046309 -16.916321 32.800273 -43.345098 -86.920298 46.482869 -33.739085 -0.000002 0.000001 -0.000000 -6.934485 0.434513 1.319621 6.944863 -1.531780 16.236106 -10.024441 -6.149402 -23.190181 -0.000005 -0.000001 0.000000 -50.912858 7.914882 -6.462527 8.986459 0.415522 2.739749 7.440146 -0.735067 -10.971209 0.000002 0.000001 0.000000 
